PathFileType	4	(X/Y/Z)	Walk3.trc
DataRate	CameraRate	NumFrames	NumMarkers	Units	OrigDataRate	OrigDataStartFrame	OrigNumFrames
200.000000	200.000000	5	56	mm	200.000000	311	604
Frame#	Times		RFA1		RUA1		RACR1		LFA1		RBHD		RASI		C7		RTH2		RTH3		RElbow		LElbowM		RTB1		RTB3		RWRU		RTH4		RLFC		RTH1		LACR1		RTB2		RMT1		RCAR		RMT5		RTB4		LElbow		LTH2		LTH3		LTH4		LWRU		LPSI		RPSI		LTB1		LLFC		T10		RWRR		LTH1		LBHD		LWRR		LTB3		LTB2		LFHD		LMT1		RBack		LCAL		LTB4		LLMAL		CLAV		LMMAL		RElbowM		LToe		LMT5		RMMAL		RLMAL		LCAR		LUA1		RCAL		RToe
			X1	Y1	Z1	X2	Y2	Z2	X3	Y3	Z3	X4	Y4	Z4	X5	Y5	Z5	X6	Y6	Z6	X7	Y7	Z7	X8	Y8	Z8	X9	Y9	Z9	X10	Y10	Z10	X11	Y11	Z11	X12	Y12	Z12	X13	Y13	Z13	X14	Y14	Z14	X15	Y15	Z15	X16	Y16	Z16	X17	Y17	Z17	X18	Y18	Z18	X19	Y19	Z19	X20	Y20	Z20	X21	Y21	Z21	X22	Y22	Z22	X23	Y23	Z23	X24	Y24	Z24	X25	Y25	Z25	X26	Y26	Z26	X27	Y27	Z27	X28	Y28	Z28	X29	Y29	Z29	X30	Y30	Z30	X31	Y31	Z31	X32	Y32	Z32	X33	Y33	Z33	X34	Y34	Z34	X35	Y35	Z35	X36	Y36	Z36	X37	Y37	Z37	X38	Y38	Z38	X39	Y39	Z39	X40	Y40	Z40	X41	Y41	Z41	X42	Y42	Z42	X43	Y43	Z43	X44	Y44	Z44	X45	Y45	Z45	X46	Y46	Z46	X47	Y47	Z47	X48	Y48	Z48	X49	Y49	Z49	X50	Y50	Z50	X51	Y51	Z51	X52	Y52	Z52	X53	Y53	Z53	X54	Y54	Z54	X55	Y55	Z55	X56	Y56	Z56

311	1.555	-694.82	927.32	588.7	-620.21	1185.3	545.2	-533.56	1364.7	470.36	-504.02	994.56	-13.284	-551.78	1553.8	392.5	-505.36	915.97	444.11	-593.99	1419	320.46	-416.59	670.18	448.82	-430.32	553.12	465.95	-696.82	1074.2	563.74	-655	1085.7	90.887	-332.1	388.53	364.39	-285.08	203.94	362.69	-737.83	802.22	581.99	-470.4	636.43	487.02	-392	461.95	444.33	-512.61	720.96	499.43	-555.34	1409	145.18	-320.89	291.88	436.76	-153.48	89.321	317.72	-710.16	739.03	589.27	-173.39	71.163	397.88	-306.7	299.53	365.07	-632.33	1095.3	11.705	-566.46	619.58	162.31	-657.77	551.08	141.42	-631.97	635.55	122.88	-477.95	878.34	-5.5279	-694.68	941.03	252.16	-691.24	939.02	356.93	-708.25	341.58	228.54	-709.24	441.02	164.11	-699.03	1111.4	302.52	-668.41	784.38	551.2	-602.87	727.95	111.97	-551.47	1558	254.48	-417.67	921.06	29.824	-809.03	187.22	252.39	-787.59	273.32	175.02	-367.61	1565.2	277.98	-780.19	33.935	308.74	-672.27	1330.5	408.68	-984.13	79.716	282.66	-761.1	265.76	241.48	-925.03	104.94	233.87	-464.44	1330.5	306.12	-889.47	115.44	319.56	-716.77	1056.6	470.4	-733.54	25.078	296.39	-810.67	31.52	219.06	-288.66	110.33	315.41	-308.78	85.68	401.05	-395.47	874.11	-18.502	-598.97	1222.9	39.46	-337.67	22.433	357.61	-110.28	111.03	345.35
312	1.56	-688.02	925.99	588.7	-613.16	1184.1	545.38	-526.66	1363.6	470.83	-496.29	994.09	-12.966	-545.09	1553	393.25	-497.36	915.41	444.22	-586.94	1417.9	320.93	-407.2	669.88	448.88	-421.53	552.6	465.44	-689.85	1072.8	563.76	-647.52	1085.1	90.831	-325.44	386.38	363.38	-281.17	201.42	361.32	-731.33	800.98	581.94	-461.48	635.98	486.78	-383.4	460.96	443.72	-503.51	720.69	498.86	-548.22	1408.3	145.55	-314.62	289.94	435.42	-151.85	85.23	316.22	-703.96	737.97	589.1	-171.33	67.489	396.29	-301.05	297.12	363.59	-624.56	1094.6	11.945	-559.33	618.84	161.88	-651.06	550.39	141.45	-624.64	634.99	122.76	-470.08	877.83	-4.8448	-686.62	940.18	252.25	-683.34	938.19	357.21	-703.08	340.8	228.4	-702.67	440.28	163.93	-691.29	1110.3	302.48	-661.63	783.17	551.07	-595.91	727.18	111.91	-544.79	1557.3	255.2	-409.95	920.79	30.444	-806.23	187.94	251.7	-783.15	273.92	174.71	-360.78	1564.6	278.67	-780.17	34.005	308.61	-665.3	1329.3	408.92	-982.67	83.317	282.19	-756.99	265.68	241.16	-923.19	107.33	233.18	-457.54	1330.1	306.77	-887.58	117.4	318.99	-709.86	1055.4	470.25	-733.6	25.044	296.44	-810.46	31.624	218.84	-286.28	107.41	314.47	-306.09	83.402	400.5	-387.55	873.71	-17.756	-591.44	1222.2	39.588	-336.94	21.488	357.71	-107.97	106.79	343.14
313	1.565	-681.14	924.86	588.49	-606.34	1183.2	545.54	-519.82	1362.8	471.36	-488.51	993.37	-12.417	-538.28	1552	393.99	-489.02	914.82	444.19	-579.92	1417.1	321.22	-397.98	669.63	449.35	-413.01	552.16	464.35	-682.59	1071.8	563.62	-640.31	1084.6	90.904	-319.06	384.47	362.13	-277.14	198.76	359.98	-724.58	799.94	581.55	-452.87	635.35	486.39	-375.08	459.94	443.08	-495.03	720.12	497.99	-541.23	1407.5	145.73	-308.78	287.8	434.13	-150.23	80.84	314.43	-697.14	736.8	588.94	-169.51	62.842	394	-296	294.46	362.55	-616.81	1094	11.928	-552.21	617.72	161.6	-643.93	549.52	141.3	-617.69	633.76	122.7	-462.08	877.24	-4.3402	-678.64	939.48	252.5	-675	937.48	357.21	-697.5	339.82	228.06	-695.74	439.8	163.92	-683.47	1109.1	302.75	-654.74	782.23	551	-588.75	726.47	112.05	-537.84	1557	255.6	-402.1	920.28	30.99	-803.09	188.64	251.26	-778.62	274.25	174.38	-354.05	1564.3	279.56	-780.07	34.075	308.52	-658.15	1328.2	409.22	-981.24	87.015	281.6	-752.42	265.69	240.69	-921.29	109.94	232.58	-450.38	1329.6	307.29	-885.58	119.37	318.34	-702.94	1054.2	470.19	-733.66	25.078	296.4	-810.16	31.635	218.67	-284.53	104.5	313.17	-304.18	80.973	399.59	-379.67	873.14	-17.045	-583.92	1221.5	39.886	-336.9	21.311	357.55	-105.88	101.9	340.48
314	1.57	-673.5	924.01	588.16	-599.18	1182.1	545.78	-512.91	1361.9	471.84	-480.91	992.83	-11.923	-531.42	1551.3	394.77	-480.94	914.45	444.1	-573.12	1416.3	321.67	-388.56	669.05	449.78	-404.85	551.68	463.2	-675.1	1070.6	563.71	-632.73	1084	91.087	-312.57	382.51	361	-272.09	196.69	357.94	-717.79	798.8	581.48	-444.58	634.91	485.54	-366.91	458.9	442.6	-486.56	719.66	496.95	-533.95	1407.2	146.12	-303.36	285.54	432.59	-148.2	74.48	313.33	-690.2	735.67	588.78	-167.5	56.9	391.7	-290.01	292.39	361.1	-609.18	1093.5	12.154	-544.66	617.23	161.24	-636.65	548.7	141.27	-610.19	633.41	122.76	-454.3	876.72	-4.0998	-670.88	938.83	252.66	-667	936.86	357.24	-691.58	338.92	227.93	-688.59	439	163.61	-675.79	1108.2	302.74	-647.82	781.28	551.17	-581.52	725.73	112.05	-531.27	1556.3	256.28	-394.42	919.76	31.653	-799.87	189.43	250.64	-773.75	274.63	173.86	-347.4	1563.9	280.16	-779.89	34.207	308.3	-651.17	1326.8	409.49	-979.66	91.1	280.79	-747.68	265.75	240.3	-919.24	112.55	231.87	-443.13	1329.2	307.7	-883.25	121.54	317.53	-695.37	1053	469.97	-733.69	25.048	296.33	-809.71	31.843	218.51	-282.37	102.5	312.09	-301.77	79.016	397.81	-371.83	872.58	-16.29	-576.51	1220.9	40.303	-336.49	22.364	356.69	-103.9	95.234	337.53
315	1.575	-666.4	922.72	588.29	-591.77	1181	545.72	-506.05	1361.2	472.48	-473.3	992.34	-11.581	-524.49	1550.8	395.48	-472.49	914.35	443.98	-565.98	1415.6	322.17	-379.76	668.75	450.68	-397.03	551.24	461.81	-668.02	1069.2	563.86	-624.91	1083.5	91.322	-305.42	381.74	359.74	-266.91	195.39	356.4	-710.55	797.63	581.33	-436.83	634.71	484.33	-359.08	458.08	442.45	-478.24	719.79	495.87	-526.77	1406.7	146.8	-297.48	284.47	430.94	-144.95	66.469	311.21	-683.37	734.58	588.74	-165.35	50.911	390.96	-283.88	291.3	359.91	-601.42	1093	12.39	-537.06	616.51	160.69	-629.14	548.19	141.28	-602.75	632.94	122.44	-446.85	876.37	-3.7551	-663.04	938.27	252.76	-659.5	936.44	357.39	-685.81	337.96	227.7	-681.32	438.3	163.38	-668.15	1107.5	303.2	-640.48	780.09	551.31	-574.24	724.87	112.27	-524.38	1555.7	257.26	-387.06	919.16	32.102	-796.51	190.48	250.01	-768.66	275.09	173.19	-340.51	1563.7	280.93	-779.67	34.406	308.04	-644.29	1326	409.56	-977.58	95.298	280.02	-743.06	265.68	240	-916.92	115.42	231.17	-435.65	1328.6	308.19	-881	123.76	316.93	-687.71	1052	469.92	-733.77	25.06	296.23	-809.13	31.913	218.41	-279.12	101.72	311.16	-298.21	78.261	395.99	-364.16	872.04	-15.656	-569.02	1220.4	40.716	-335.03	24.213	356.11	-101.29	85.853	335.44
